<svg xmlns="http://www.w3.org/2000/svg" width="50.625" height="54" viewBox="0 0 50.625 54"><path d="M22.659,24.588h6.75v6.75h-6.75Zm10.125,0h6.75v6.75h-6.75Zm10.125,0h6.75v6.75h-6.75ZM12.534,44.838h6.75v6.75h-6.75Zm10.125,0h6.75v6.75h-6.75Zm10.125,0h6.75v6.75h-6.75ZM22.659,34.713h6.75v6.75h-6.75Zm10.125,0h6.75v6.75h-6.75Zm10.125,0h6.75v6.75h-6.75Zm-30.375,0h6.75v6.75h-6.75ZM49.659,4.338V7.713h-6.75V4.338H19.284V7.713h-6.75V4.338H5.784v54H56.409v-54h-6.75Zm3.375,50.625H9.159V17.838H53.034Z" transform="translate(-5.784 -4.338)" fill="#ff6663"/></svg>