<svg xmlns="http://www.w3.org/2000/svg" width="47.963" height="54" viewBox="0 0 47.963 54"><path d="M30.287,41.6h1.2a2.29,2.29,0,0,0,1.5-.6,1.557,1.557,0,0,0,.6-1.2v-.6a1.047,1.047,0,0,1-.3-.6c0-.3-.3-.3-.6-.3h-1.5a1.047,1.047,0,0,1-.6.3c-.3,0-.3.3-.3.6v.6h-3a2.7,2.7,0,0,1,.3-1.5,4.138,4.138,0,0,1,.9-1.2,2.273,2.273,0,0,1,1.2-.6c.3,0,1.2-.3,1.5-.3a3.8,3.8,0,0,1,1.8.3c.6.3.9.3,1.5.6s.6.6.9,1.2a2.7,2.7,0,0,1,.3,1.5v.9a3.02,3.02,0,0,0-.3.9.645.645,0,0,1-.6.6c-.3,0-.6.3-.9.6a2.993,2.993,0,0,1,1.5,1.2,4.261,4.261,0,0,1,.6,1.8,2.246,2.246,0,0,1-.3,1.5c-.3.3-.6.9-.9,1.2a2.29,2.29,0,0,1-1.5.6c-.6,0-1.2.3-1.8.3a2.246,2.246,0,0,1-1.5-.3c-.3-.3-.9-.3-1.5-.6s-.6-.6-.9-1.2a3.8,3.8,0,0,1-.3-1.8h2.4v.6a1.047,1.047,0,0,1,.3.6c0,.3.3.3.6.3h1.5a1.047,1.047,0,0,1,.6-.3c.3,0,.3-.3.3-.6v-1.5a1.047,1.047,0,0,1-.3-.6c0-.3-.3-.3-.6-.3h-1.8V41.6Zm17.087,2.1a5.844,5.844,0,0,1-.3,2.4l-.9,1.8s-.9.9-1.5.9-1.2.3-1.8.3a3.8,3.8,0,0,1-1.8-.3c-.6-.3-.9-.6-1.5-.9s-.6-.9-.9-1.8a6.6,6.6,0,0,1-.3-2.4V41.6a5.844,5.844,0,0,1,.3-2.4l.9-1.8s.9-.9,1.5-.9,1.2-.3,1.8-.3a3.8,3.8,0,0,1,1.8.3c.6.3.9.6,1.5.9s.6.9.9,1.8a6.6,6.6,0,0,1,.3,2.4Zm-2.7-2.4V39.8a3.02,3.02,0,0,1-.3-.9c0-.3-.3-.3-.6-.6a1.5,1.5,0,0,0-1.8,0l-.6.6a3.02,3.02,0,0,0-.3.9v6a3.019,3.019,0,0,1,.3.9c0,.3.3.3.6.6a1.5,1.5,0,0,0,1.8,0l.6-.6a3.02,3.02,0,0,0,.3-.9ZM13.5,40.1a23.981,23.981,0,1,0,47.963,0h-6A17.986,17.986,0,1,1,37.481,22.11v6.555L52.47,19.113,37.481,10.078v6.037A24.052,24.052,0,0,0,13.5,40.1Z" transform="translate(-13.5 -10.078)" fill="#ff6663"/></svg>