<svg xmlns="http://www.w3.org/2000/svg" width="118.25" height="24" viewBox="0 0 118.25 24"><g transform="translate(-1214.413 -344)"><path d="M16.5,7.5V6a6,6,0,0,0-12,0V7.5H0V20.25A3.75,3.75,0,0,0,3.75,24h13.5A3.75,3.75,0,0,0,21,20.25V7.5ZM7.5,6a3,3,0,1,1,6,0V7.5h-6ZM15,11.625A1.125,1.125,0,1,1,16.125,10.5,1.125,1.125,0,0,1,15,11.625Zm-9,0A1.125,1.125,0,1,1,7.125,10.5,1.125,1.125,0,0,1,6,11.625Z" transform="translate(1311.663 344)" fill="#fff"/><path d="M8.035,1.928c-2.485,0-4.5,2.35-4.5,5.25A5.151,5.151,0,0,0,7,12.287L6.252,24.431a1.4,1.4,0,0,0,1.408,1.5h.75a1.4,1.4,0,0,0,1.408-1.5L9.073,12.287a5.151,5.151,0,0,0,3.462-5.109C12.535,4.279,10.52,1.928,8.035,1.928Zm15.125,0-1.25,7.5h-.937l-.625-7.5h-.625l-.625,7.5H18.16l-1.25-7.5h-.625v9.75a.75.75,0,0,0,.75.75h1.953l-.736,12a1.4,1.4,0,0,0,1.408,1.5h.75a1.4,1.4,0,0,0,1.408-1.5l-.736-12h1.953a.75.75,0,0,0,.75-.75V1.928Z" transform="translate(1262.878 342.072)" fill="#fff"/><path d="M11.8,12.5l1.187-7.875H6.813l-2.578,6.75a2.366,2.366,0,0,0-.121.75c0,1.656,1.725,3,3.856,3,1.965,0,3.59-1.146,3.828-2.625Zm5.815,2.625c2.13,0,3.856-1.344,3.856-3,0-.061,0-.123-.007-.181L20.7,4.627H14.528l-.765,7.312c0,.061-.006.123-.006.188,0,1.656,1.726,3,3.856,3Zm7.5,1.569v5.931h-15V16.705a6.311,6.311,0,0,1-2.144.372A6.184,6.184,0,0,1,7.113,17v9.523a2.1,2.1,0,0,0,2.1,2.1h16.8a2.107,2.107,0,0,0,2.1-2.1V17.005a6.445,6.445,0,0,1-.856.074A6.233,6.233,0,0,1,25.113,16.7Zm5.88-5.319-2.582-6.75h-6.17l1.185,7.863c.231,1.485,1.855,2.637,3.83,2.637,2.13,0,3.856-1.344,3.856-3A2.409,2.409,0,0,0,30.993,11.377Z" transform="translate(1210.3 339.373)" fill="#fff"/></g></svg>