<svg xmlns="http://www.w3.org/2000/svg" width="145.075" height="28" viewBox="0 0 145.075 28"><g transform="translate(-587.337 -340)"><path d="M32.591,10.3,29.972,30.825H21.128L18.52,10.2h10.8l2.134-7.371,1.21.365-2.048,7.094,1.977.015ZM17.27,22.174s.331-2.662-4.256-2.662H5.71c-4.58,0-4.256,2.662-4.256,2.662H17.27ZM1.455,28.163s-.324,2.662,4.256,2.662h7.3c4.586,0,4.256-2.662,4.256-2.662H1.455Zm15.129-1.331a1.531,1.531,0,0,0,1.357-1.663A1.529,1.529,0,0,0,16.584,23.5H2.078A1.531,1.531,0,0,0,.72,25.169a1.533,1.533,0,0,0,1.358,1.663H16.584Z" transform="translate(699.751 337.175)" fill="#fff"/><path d="M27.24,10.671a11.05,11.05,0,0,1-1.578,6.439,23.973,23.973,0,0,0-.934-6.945,10.174,10.174,0,0,0-2.6.015,8.981,8.981,0,0,1-2.522,6.9,13.575,13.575,0,0,0-.342-6.126,13.284,13.284,0,0,0-3.849-.156,9.541,9.541,0,0,1-1.534,6.439,14.1,14.1,0,0,0-1.032-5.9,14.579,14.579,0,0,0-3.012.305c.976,1.761.2,5.63.2,5.63a10.235,10.235,0,0,0-2.321-5.03C-2.539,16.651.162,22.729,5.177,24.539c4.731,1.7,19.976,2.545,26.8-.444S33.991,12.7,27.24,10.671Z" transform="translate(640.191 341.92)" fill="#fff"/><path d="M8.57,17.964h8.571a4.287,4.287,0,0,0,4.286-4.286h1.429a5.714,5.714,0,1,0,0-11.429H5.356A1.069,1.069,0,0,0,4.284,3.321V13.679A4.287,4.287,0,0,0,8.57,17.964ZM22.856,5.107a2.857,2.857,0,1,1,0,5.714H21.427V5.107ZM24.985,22.25H2.155C.03,22.25-.568,19.393.548,19.393h26.04c1.116,0,.527,2.857-1.6,2.857Z" transform="translate(587.341 345.75)" fill="#fff"/></g></svg>