<svg xmlns="http://www.w3.org/2000/svg" xmlns:xlink="http://www.w3.org/1999/xlink" width="413.33" height="30" viewBox="0 0 413.33 30"><defs><clipPath id="a"><rect width="413.33" height="30" fill="none"/></clipPath></defs><g clip-path="url(#a)"><rect width="20.99" height="6.67" transform="translate(0.06)" fill="#0e4e96"/><path d="M0,12.82H20.87v5.81H7.05s-.27,4.3,2.53,5.1H20.87v6.21H0Z" fill="#0e4e96"/><path d="M28.47.08h28.7c3.11.87,4.34,2.2,5,5.1V29.9H55.05V10.23c-.53-2.61-1.83-3.07-3.88-3.54H35.77V30h-7.3Z" fill="#0e4e96"/><rect width="6.82" height="17.12" transform="translate(42 12.84)" fill="#0e4e96"/><rect width="7.7" height="29.94" transform="translate(68.76 0.04)" fill="#0e4e96"/><path d="M84.83,0h9.43c1.26,11.56,6.54,8.89,10.26,17.37,2.64,8.94-3.81,12.62-6,12.62H83.69V24.08H93.92c1.57,0,5.69-2.45-1-9.66-4.33-4.15-7.57-6.64-8-14.41" fill="#0e4e96"/><path d="M136.69,7.62l-2,.73a15.41,15.41,0,0,0-1.92-4.69L135.2,4a9.44,9.44,0,0,1,1.49,3.58" fill="#0e4e96"/><path d="M139.05,18.69V15.44h3.19l1.17-2.15h-4.36V10.35h3.67l1.17-2.15h-3l1.77-3.83L140.82,2.8l-1.67,4.33,1,1.07H135.1l1.59-.58A9.37,9.37,0,0,0,135.2,4l-2.43-.38a15.67,15.67,0,0,1,1.9,4.54h-1.24l-1.17,2.15h4.54v2.94h-3l-1.17,2.15h4.21v3.25h-3.93l-1.17,2.2h5.1V26l2.25,1.17V20.89h4.21l1.16-2.2Z" fill="#0e4e96"/><path d="M130.25,17.11h-5.38l.76-2.28h5.59V12.39h-8.63l-1.4,2.44h2.16a10.46,10.46,0,0,1-2.77,5l.82,2.73,1.77-2.15v4.91h8.41V18.45a1.34,1.34,0,0,0-1.33-1.34m-.95,6.16h-3a1,1,0,0,1-1-1v-3.1h4Z" fill="#0e4e96"/><path d="M131.24,3.9v6.25H120.33L121.58,8h7.09V7.92a2.45,2.45,0,0,0-.36-1.34,1,1,0,0,0-.56-.41h-6.19l1.31-2.27Z" fill="#0e4e96"/><path d="M172.06,4.58v8.76H152.53V3.41l2.03,1.17v7.11h2.55V10.58H154.6l1.17-1.19h1.34V8.4h-2.25l1.16-1.19h1.09V6.22h-2.4l1.16-1.19h1.24V3.16l1.47,1.16v.71h2.46l-1.16,1.19h-1.3v.99h2.33L159.75,8.4h-1.17v.99h2.59L160,10.58h-1.42v1.11h2.64V2.75l2.05,1.17v7.77h2.61V10.58h-2.56l1.17-1.19h1.39V8.4h-2.31l1.17-1.19h1.14V6.22h-2.46l1.17-1.19h1.29V3.16l1.47,1.16v.71h2.46l-1.17,1.19h-1.29v.99h2.3L168.49,8.4h-1.14v.99h2.58l-1.16,1.19h-1.42v1.11h2.61V3.41Z" fill="#0e4e96"/><path d="M173.71,14.4l-1.17,1.68H150.96l1.16-1.68Z" fill="#0e4e96"/><path d="M151.74,24.31l-1.16,1.77h5.82a2.34,2.34,0,0,0,1.88-1.77,2.9,2.9,0,0,0,.07-.34h0a2.833,2.833,0,0,0,0-.29h0a2.37,2.37,0,0,0,0-.45h0a2.207,2.207,0,0,0-.05-.33.41.41,0,0,0,0-.1,1.429,1.429,0,0,0-.1-.38,2.578,2.578,0,0,0-.2-.41,4.89,4.89,0,0,0-1.19-1.47,3.91,3.91,0,0,1-1.38-1.85,7.28,7.28,0,0,1-.3-1.46h-2.82c.14,2.31,1.12,3.06,2.41,4.3s1.25,2.12,1,2.53a.87.87,0,0,1-.59.36Z" fill="#0e4e96"/><path d="M173.99,24.31l-1.17,1.77H158.97l1.16-1.77h4.45l1.15-2.41h-5.16l-1.2-1.47h8.72V18.58H158l-.3-1.47h12.59V21.9h-2.14l-1.2,2.41Z" fill="#0e4e96"/><path d="M188.6,8.17l-.78,2.18c-3.14,1.07-5.31,1.78-6.51,2.15l.23-2.35,7.06-2M189,6l-2.1,1.32a31.241,31.241,0,0,0-5.27-2L183.76,4A26.34,26.34,0,0,1,189,6m-.55,16.54,2.22,1a35.73,35.73,0,0,1-8.3,3.35l-.64-2.08a22.35,22.35,0,0,0,6.72-2.23m12.43,0h-4.4a70.279,70.279,0,0,1,7.65,3l-3.2.86a37.331,37.331,0,0,0-6.28-2.64l1.5-1.19h-11.8V12.33h5a8.121,8.121,0,0,0-1-1.5,12.61,12.61,0,0,0,4.18-1.42,5.9,5.9,0,0,0,2.56-3l1.59,1.37-.12.25a9.12,9.12,0,0,0,2.86,1.85A18.17,18.17,0,0,0,204,11.06l-2.45,1.47-.64-.18Zm-14.23-7.24h11.88V13.82h-11.9Zm0,2.83h11.88V16.68h-11.9Zm0,2.92h11.88V19.55h-11.9ZM200.38,6.86H192.2a16.611,16.611,0,0,1-2.58,2.48l-.89-1.9a10.33,10.33,0,0,0,3.6-4.59l1.54,1.35-.5.93,9.06-.07.69.93a15.42,15.42,0,0,1-2.51,3.63L199.42,8.1ZM190,12.33h10.79a12.91,12.91,0,0,1-5.16-3,10.91,10.91,0,0,1-5.63,3" fill="#0e4e96"/><path d="M220.83,7.59l-1.17,1.87h-9.12l1.17-1.87Zm-2.08,5.22h-7.2L212.72,11h7.19Zm-7.2,3.32,1.17-1.83h7.22l-1.17,1.83Zm7.81,9h-7.22V17.72h7.22ZM215.25,7.08l-1.77-3.42,2.2.08,1.75,3.32Zm2.23,12.54H214v3.63h3.49Zm3.65-14.89H231.7q-.24,7,0,13t1,6.18a1.029,1.029,0,0,0,.15-.43L233,20l1.26,3c-.18,2.82-1,3.91-2.53,3.27a2.67,2.67,0,0,1-1.39-1.75,17.64,17.64,0,0,1-.74-4.56c-.13-2.1-.21-3.91-.23-5.45s0-3.94,0-7.17V7h-3.75v7.1h3.55L228,16.28h-2.38V27.2L223.39,26V16.28h-3.73l1.17-2.18h2.56V7H220Z" fill="#0e4e96"/><path d="M251.25,17.47l-2.05.91-1.7-2.86V27.17L245.22,26V16.33a27.11,27.11,0,0,1-3.54,6.38l-.49-3.11a14.519,14.519,0,0,0,1.88-2.87,28.618,28.618,0,0,0,1.82-4.1h-4.3l1.16-2.2h3.47V7c-.52.1-1.78.3-3.77.58l.5-2a35.72,35.72,0,0,0,8-2.12l.25,2.25-2.71.81V10.4h4.13l-1.16,2.2h-3V13c.36.37.95,1,1.78,2s1.48,1.8,2,2.46m12.67,2.18-2.56.45v7.07L259,26V20.5l-8.54,1.42.76-2.41L259,18.2V2.78l2.33,1.16V17.82l3.32-.53Zm-6.08-4.11-2.38.71A9.22,9.22,0,0,0,254,14.81a28.3,28.3,0,0,0-2.86-2.23l2.41-.71a20.55,20.55,0,0,1,4.28,3.67m.68-6.61-2.43.66a18.141,18.141,0,0,0-4-3.6l2.43-.63a18.13,18.13,0,0,1,4,3.57" fill="#0e4e96"/><path d="M280,14.15l-.81,2.41-2.33.68V23.9c0,1.15-.33,1.89-1,2.21a11.25,11.25,0,0,1-4.18.4l.46-2.12h1.9a.44.44,0,0,0,.5-.49v-6l-3.34.91.51-2.53,2.83-.69V10.5h-3.69l1.16-2.18h2.53V2.8L276.89,4V8.32h3.24L279,10.5h-2.08V15Zm12.47-1.44.7,1.14a16.72,16.72,0,0,1-4.71,7.85,20,20,0,0,0,6.77,3.12l-2.59,1.62a16.13,16.13,0,0,1-6-3.22,24,24,0,0,1-7.48,3.57l-.2-2.51a17.2,17.2,0,0,0,6-2.71A21,21,0,0,1,281,15l.33-.1h-1.59l1.16-2.16h4.64V9.31h-6.26l1.17-2.15h5.09V2.78l2.33,1.16V7.16h6.43l-1.16,2.15h-5.27v3.47Zm-2.06,2.23h-7.09a16.11,16.11,0,0,0,3.39,5.21,14.45,14.45,0,0,0,3.7-5.21" fill="#0e4e96"/><path d="M307.84,24.71V5.05h12.24l-1.23,2.62h-7.92v6h7.87l-1.23,2.58h-6.64v8.46Z" fill="#17a6e8"/><path d="M321.81,24.71V9.43l2.56,1.22.19,2a7.46,7.46,0,0,1,1.95-2.21,3.84,3.84,0,0,1,2.29-.8l2.24.42-1.76,2.48-.85-.16a3.11,3.11,0,0,0-2,.78,5.66,5.66,0,0,0-1.57,2.37v9.15Z" fill="#17a6e8"/><path d="M338.27,25.05A6.93,6.93,0,0,1,333.15,23a7.73,7.73,0,0,1-2-5.63,7.79,7.79,0,0,1,2-5.54,6.2,6.2,0,0,1,4.69-2.16,5.44,5.44,0,0,1,4.43,1.89,7.55,7.55,0,0,1,1.57,5l-.16,1.57h-9.52a5.14,5.14,0,0,0,1.39,3.28,4.32,4.32,0,0,0,3.15,1.2,8.06,8.06,0,0,0,4.05-1.33v2.45a7.34,7.34,0,0,1-4.42,1.28m-4.16-9h7a4.49,4.49,0,0,0-.86-2.93,2.89,2.89,0,0,0-2.42-1,3.43,3.43,0,0,0-2.51,1.06Z" fill="#17a6e8"/><path d="M353.07,25.05A6.93,6.93,0,0,1,348,23a7.73,7.73,0,0,1-2-5.63,7.79,7.79,0,0,1,2-5.54,6.2,6.2,0,0,1,4.69-2.16A5.44,5.44,0,0,1,357,11.56a7.55,7.55,0,0,1,1.57,5l-.16,1.57h-9.52a5.14,5.14,0,0,0,1.39,3.28,4.32,4.32,0,0,0,3.15,1.2,8.06,8.06,0,0,0,4-1.33v2.45a7.34,7.34,0,0,1-4.42,1.28m-4.16-9h7a4.49,4.49,0,0,0-.86-2.93,2.89,2.89,0,0,0-2.42-1,3.43,3.43,0,0,0-2.51,1.06Z" fill="#17a6e8"/><path d="M363.47,25.75V5.61H370q7.73,0,7.73,6.22a5.81,5.81,0,0,1-2.13,4.88,8.68,8.68,0,0,1-5.5,1.65h-2.64v7.39Zm3.94-10.51h2.38q4,0,4-3.41a2.6,2.6,0,0,0-1-2.35,5.4,5.4,0,0,0-3.12-.72h-2.24Z" fill="#17a6e8"/><path d="M394.69,23a8.74,8.74,0,0,1-12.8,0,11.11,11.11,0,0,1-2.42-7.53A10.82,10.82,0,0,1,381.89,8a8.91,8.91,0,0,1,12.8,0,10.75,10.75,0,0,1,2.43,7.44A11.07,11.07,0,0,1,394.69,23m-9.89-2.49a4.21,4.21,0,0,0,7,0,8.68,8.68,0,0,0,1.3-5,8.42,8.42,0,0,0-1.29-5,4.31,4.31,0,0,0-7,0,8.35,8.35,0,0,0-1.3,5,8.68,8.68,0,0,0,1.31,5" fill="#17a6e8"/><path d="M406.08,25.75a11.32,11.32,0,0,1-7.76-3.26l3.39-2a6,6,0,0,0,4.45,1.81,3.9,3.9,0,0,0,2.32-.58,2,2,0,0,0,.83-1.68,2.08,2.08,0,0,0-.19-.91,1.78,1.78,0,0,0-.69-.72,4.651,4.651,0,0,0-.86-.48c-.21-.11-.62-.29-1.22-.56l-2.64-1.12q-4-1.65-4-5.31a5.14,5.14,0,0,1,1.92-4.08,7.33,7.33,0,0,1,4.9-1.62,8.82,8.82,0,0,1,3.36.66,11.21,11.21,0,0,1,3.36,2.3l-3.12,1.7a5.1,5.1,0,0,0-3.6-1.28,3.51,3.51,0,0,0-2.08.56,1.76,1.76,0,0,0-.74,1.52,2,2,0,0,0,.18.88,2.26,2.26,0,0,0,.75.72,8.5,8.5,0,0,0,.91.48c.23.11.64.28,1.22.51l2.59,1.09a7.19,7.19,0,0,1,2.93,2.08,4.94,4.94,0,0,1,1,3.28,5.41,5.41,0,0,1-2,4.24,7.71,7.71,0,0,1-5.28,1.74" fill="#17a6e8"/></g></svg>