<svg xmlns="http://www.w3.org/2000/svg" width="24" height="24" viewBox="0 0 24 24"><path d="M21.429,2.25H2.571A2.571,2.571,0,0,0,0,4.821V23.679A2.571,2.571,0,0,0,2.571,26.25H21.429A2.571,2.571,0,0,0,24,23.679V4.821A2.571,2.571,0,0,0,21.429,2.25Zm-.878,16.466-.8,3.482a.8.8,0,0,1-.783.623A15.537,15.537,0,0,1,3.429,7.286.841.841,0,0,1,4.052,6.5l3.482-.8a.977.977,0,0,1,.181-.021.872.872,0,0,1,.739.487l1.607,3.75a.959.959,0,0,1,.065.317.911.911,0,0,1-.295.622L7.8,12.515a12.424,12.424,0,0,0,5.935,5.935L15.4,16.42a.911.911,0,0,1,.622-.295.956.956,0,0,1,.317.065l3.75,1.607a.871.871,0,0,1,.487.739A.933.933,0,0,1,20.551,18.716Z" transform="translate(0 -2.25)" fill="#17a6e8"/></svg>