<svg xmlns="http://www.w3.org/2000/svg" width="64.429" height="41" viewBox="0 0 64.429 41"><path d="M45.429,25.071a8.786,8.786,0,1,0-8.786-8.786A8.749,8.749,0,0,0,45.429,25.071ZM22,25.071a8.786,8.786,0,1,0-8.786-8.786A8.749,8.749,0,0,0,22,25.071Zm0,5.857c-6.824,0-20.5,3.426-20.5,10.25V48.5h41V41.179C42.5,34.355,28.824,30.929,22,30.929Zm23.429,0c-.849,0-1.816.059-2.841.146,3.4,2.46,5.769,5.769,5.769,10.1V48.5H65.929V41.179C65.929,34.355,52.252,30.929,45.429,30.929Z" transform="translate(-1.5 -7.5)" fill="#ff6663"/></svg>