<svg xmlns="http://www.w3.org/2000/svg" width="58" height="58" viewBox="0 0 58 58"><path d="M0,45.913V50.75c0,4,9.742,7.25,21.75,7.25S43.5,54.749,43.5,50.75V45.913c-4.679,3.3-13.231,4.837-21.75,4.837S4.679,49.209,0,45.913ZM36.25,14.5C48.258,14.5,58,11.249,58,7.25S48.258,0,36.25,0,14.5,3.251,14.5,7.25,24.242,14.5,36.25,14.5ZM0,34.03v5.845c0,4,9.742,7.25,21.75,7.25s21.75-3.251,21.75-7.25V34.03c-4.679,3.852-13.243,5.845-21.75,5.845S4.679,37.881,0,34.03Zm47.125,1.246C53.616,34.018,58,31.685,58,29V24.163c-2.628,1.858-6.491,3.127-10.875,3.908ZM21.75,18.125C9.742,18.125,0,22.18,0,27.188S9.742,36.25,21.75,36.25,43.5,32.195,43.5,27.188,33.758,18.125,21.75,18.125ZM46.593,24.5C53.389,23.279,58,20.878,58,18.125V13.288c-4.021,2.843-10.932,4.373-18.2,4.735C43.138,19.643,45.6,21.818,46.593,24.5Z" fill="#ff6663"/></svg>