<svg xmlns="http://www.w3.org/2000/svg" width="69.732" height="39" viewBox="0 0 69.732 39"><path d="M9.041,18.8a8.166,8.166,0,0,1,2.474.392,12.2,12.2,0,0,1-.1-1.492c0-6.027,4.377-10.909,9.77-10.909a9.169,9.169,0,0,1,6.491,2.767C29.882,3.933,34.906,0,40.759,0c7.885,0,14.278,7.137,14.278,15.942q0,.813-.072,1.622a9.257,9.257,0,0,1,4.615-1.246c5.6,0,10.153,5.078,10.153,11.341S65.184,39,59.575,39H8.151v-.05C3.576,38.448,0,34.143,0,28.9c0-5.575,4.048-10.1,9.046-10.1" transform="translate(0)" fill="#ff6663"/></svg>