<svg xmlns="http://www.w3.org/2000/svg" width="210.909" height="40" viewBox="0 0 210.909 40"><path d="M93.236,26.909H98.4V23.273H93.236ZM60.8,21.236v3.491l1.6-.582V21.236Zm0-1.673h1.6V16.945H60.8Zm77.964-1.309h2.109V16.364h-2.109Zm7.127,0h2.182V16.364h-2.182ZM93.818,13.818v.145a7.491,7.491,0,0,0,2.036,2.545,14.109,14.109,0,0,0,2.473-2.618Zm44.945.945h2.109V12.873h-2.109Zm7.127,0h2.182V12.873h-2.182ZM60.8,15.273h1.6V12.727H60.8Zm21.527,13.6a19.854,19.854,0,0,0,1.236-4.655l1.6.364a20.509,20.509,0,0,1-1.236,5.164Zm3.564-4.436,1.527-.291a22.255,22.255,0,0,1,.655,4.655l-1.673.364a27.638,27.638,0,0,0-.509-4.655m2.255-.291,1.455-.509a25.018,25.018,0,0,1,1.164,3.782L89.236,28a26.183,26.183,0,0,0-1.091-3.855m3.127-2.691h9.091v8.073H98.4V28.8H93.236v.727H91.273ZM68.582,24V20.8h1.745v4.364a4.291,4.291,0,0,1-1.091,2.618,6.327,6.327,0,0,1-2.618,1.964l-1.309-1.527a5.189,5.189,0,0,0,3.127-2.545H65.309V21.236h1.745V24Zm2.982-3.127h1.745v3.491h1.455V21.236h1.745v4.873h-3.2v3.345H71.564Zm65.382-9.745h5.745V20h-3.927v9.527h-1.818Zm7.127,0h5.818V27.636a1.813,1.813,0,0,1-.945,1.673,5.018,5.018,0,0,1-2.036.291h-1.236l-.582-1.745h1.6l1.236-.145a.509.509,0,0,0,.218-.509V20h-4Zm-23.127,1.164,1.527-1.236a17.163,17.163,0,0,1,2.909,3.273l-1.6,1.164a15.855,15.855,0,0,0-2.836-3.127M58.036,10.982h7.127v1.745h-.945V29.455H62.4V26.109l-4,1.309-.655-1.673,1.309-.364V12.727H58.036Zm48.945,1.236a32,32,0,0,0,9.236-1.745l1.091,1.6a29.163,29.163,0,0,1-3.782,1.091v2.909h4.509q-.073-1.309-.073-5.6H120v5.6h5.964v1.818h-5.891a49.453,49.453,0,0,0,.364,5.091,18.909,18.909,0,0,0,2.764-4.218l1.673.873a18.327,18.327,0,0,1-3.855,5.455,8.728,8.728,0,0,0,1.164,1.891c.364.436.655.582.8.582s.945-1.091,1.309-3.345l1.745,1.091a10.181,10.181,0,0,1-1.091,3.2,2.036,2.036,0,0,1-1.818,1.164q-1.818,0-3.636-3.273a26.255,26.255,0,0,1-4.073,2.473l-1.091-1.6a24.29,24.29,0,0,0,4.436-2.618,36.511,36.511,0,0,1-.727-6.618h-4.582v2.982l3.636-.945v1.891l-3.636.945v4.8a1.891,1.891,0,0,1-.364,1.236,1.527,1.527,0,0,1-.873.509l-1.891.145h-1.964l-.655-2.036h3.564c.145-.073.145-.218.145-.364V23.273l-4.291.655-.364-1.818,4.655-.727V17.964h-4.582V16.073h4.582V13.6l-3.709.436ZM90.109,14.982A16.436,16.436,0,0,0,94.036,10.4l1.745.509A6.546,6.546,0,0,1,95.2,12h5.164v1.818a16.873,16.873,0,0,1-3.127,3.709,16.218,16.218,0,0,0,4.436,1.891l-1.018,1.745a25.818,25.818,0,0,1-4.945-2.473,25.309,25.309,0,0,1-4.8,2.4l-.945-1.673a20.654,20.654,0,0,0,4.291-1.891,9.964,9.964,0,0,1-1.745-2.182L91.2,16.582Zm-19.273.073a15.927,15.927,0,0,0,2.4-4.727l1.527.582a12.582,12.582,0,0,1-1.891,3.636l1.673-.364a13.165,13.165,0,0,0,.727-1.527l1.527.655a17.455,17.455,0,0,1-3.636,5.382l1.745-.436-.291-.655L76,17.091A13.019,13.019,0,0,1,77.018,20l-1.382.509-.291-.945a32.22,32.22,0,0,1-4.073.8l-.291-1.309a13.455,13.455,0,0,0,2.618-3.2l-2.4.436Zm60.436,4.073a27.922,27.922,0,0,0,3.418-8.8l1.673.436q-.218,1.018-.727,2.764l-.509,1.745V29.527h-1.818V19.273a9.528,9.528,0,0,1-1.164,1.818ZM82.545,16.8a22.473,22.473,0,0,0,3.564-6.545l1.818.509a22.328,22.328,0,0,1-2.982,5.6L87.127,16a11.273,11.273,0,0,0,1.236-2.255l1.673.655a28.509,28.509,0,0,1-4.8,7.2L88,20.945a5.527,5.527,0,0,0-.509-1.018l1.6-.655a15.418,15.418,0,0,1,1.455,3.418l-1.673.655a4.944,4.944,0,0,0-.291-.873,53.744,53.744,0,0,1-5.6,1.236l-.509-1.6a22.763,22.763,0,0,0,3.564-4.291l-2.982.509Zm-17.6-2.109a14.4,14.4,0,0,0,2.4-4.436l1.527.655A17.819,17.819,0,0,1,67.055,14.4l1.382-.364a9.6,9.6,0,0,0,.727-1.527l1.527.582a19.491,19.491,0,0,1-3.782,5.6l1.673-.364a3.782,3.782,0,0,0-.291-.727l1.309-.582a10.109,10.109,0,0,1,.945,2.836l-1.382.509a4.146,4.146,0,0,0-.145-.727l-3.855.727-.436-1.309a12.291,12.291,0,0,0,2.691-3.273l-2.182.364ZM20,0A20.073,20.073,0,0,0,0,19.855v.291A20.073,20.073,0,0,0,20,40H190.909a20,20,0,0,0,0-40Z" transform="translate(0 0)" fill="#17a6e8"/></svg>