<svg xmlns="http://www.w3.org/2000/svg" xmlns:xlink="http://www.w3.org/1999/xlink" width="1075.513" height="601.516" viewBox="0 0 1075.513 601.516"><defs><linearGradient id="a" x1="0.5" y1="0.243" x2="0.5" y2="1" gradientUnits="objectBoundingBox"><stop offset="0" stop-color="#e3f3fc"/><stop offset="1" stop-color="#e3f3fc" stop-opacity="0"/></linearGradient></defs><path d="M139.452,289.952a125.95,125.95,0,0,1,38.158,6.042,188.186,188.186,0,0,1-1.6-23.007c0-92.958,67.506-168.254,150.691-168.254,36.941-.029,72.592,15.17,100.114,42.683C460.885,60.655,538.381,0,628.643,0,750.264,0,848.852,110.078,848.852,245.874q.009,12.534-1.11,25.021a142.778,142.778,0,0,1,71.183-19.211c86.446,0,156.589,78.317,156.589,174.916s-70.142,174.916-156.658,174.916H125.715v-.775C55.156,592.995,0,526.607,0,445.734c0-85.986,62.441-155.782,139.521-155.782" transform="translate(0)" opacity="0.9" fill="url(#a)"/></svg>